<svg id="Layer_1" data-name="Layer 1" xmlns="http://www.w3.org/2000/svg" viewBox="0 0 240.9 298.5"><defs><style>.cls-1{fill:#fdc20c;}</style></defs><title>MB-Logo</title><path class="cls-1" d="M116.4,108l85-50.5L286.5,108a7.4,7.4,0,1,0,7.6-12.7L205.2,42.5a7.2,7.2,0,0,0-7.5,0L108.8,95.3a7.5,7.5,0,0,0-2.6,10.2,7.4,7.4,0,0,0,10.2,2.5m88.8,231,88.9-52.8a7.4,7.4,0,0,0-7.6-12.8L201.4,324l-85-50.6a7.4,7.4,0,0,0-7.6,12.8L197.7,339a6.9,6.9,0,0,0,3.7,1,7.2,7.2,0,0,0,3.8-1M312,264a9.9,9.9,0,0,1-9.9-9.9V144.9l-95.3,61.7a9.9,9.9,0,0,1-10.7,0l-95.3-61.7V254.1a9.9,9.9,0,1,1-19.8,0V126.8a9.8,9.8,0,0,1,5.2-8.7,9.7,9.7,0,0,1,10.1.4l105.1,68,105.2-68a9.7,9.7,0,0,1,10.1-.4,9.8,9.8,0,0,1,5.2,8.7V254.1A9.9,9.9,0,0,1,312,264" transform="translate(-81 -41.5)"/></svg>